# xmcd
#
# Track frame offsets: 
#        150
#        6212
#        39812
#        62980
#        81660
#        115980
#        122175
#        147927
#        182682
#        206260
#        232957
#        253152
#
# Disc length: 3632 seconds
#
# Revision: 1
# Processed by: cddbd v1.5.1PL0 Copyright (c) Steve Scherf et al.
# Submitted via: ExactAudioCopy v0.95b1
#
DISCID=a60e2e0c
DTITLE=David Binney - The Luxury of Guessing
DYEAR=1995
DGENRE=Jazz
TTITLE0=Omen
TTITLE1=See How Fine My Address Was
TTITLE2=The Three Stars
TTITLE3=Without You
TTITLE4=Meddler
TTITLE5=Surrounding as Influence
TTITLE6=Watch Your Head
TTITLE7=Rue De Fishes
TTITLE8=Dream of Five Places
TTITLE9=Cochise
TTITLE10=The Luxury of Guessing
TTITLE11=Last of the Day
EXTD=YEAR: 1994
EXTT0=
EXTT1=
EXTT2=
EXTT3=
EXTT4=
EXTT5=
EXTT6=
EXTT7=
EXTT8=
EXTT9=
EXTT10=
EXTT11=
PLAYORDER=
